<mxfile host="Electron" modified="2024-02-14T05:07:09.919Z" agent="Mozilla/5.0 (Macintosh; Intel Mac OS X 10_15_7) AppleWebKit/537.36 (KHTML, like Gecko) draw.io/23.0.2 Chrome/120.0.6099.109 Electron/28.1.0 Safari/537.36" etag="UcZ0bQTpNFmjgOsYUlJu" version="23.0.2" type="device">
  <diagram id="sk2RtyAFTMPKhZrF-Hf0" name="Page-1">
    <mxGraphModel dx="1781" dy="1782" grid="1" gridSize="10" guides="1" tooltips="1" connect="1" arrows="1" fold="1" page="1" pageScale="1" pageWidth="827" pageHeight="1169" math="0" shadow="0">
      <root>
        <mxCell id="0" />
        <mxCell id="1" parent="0" />
        <mxCell id="-1kfDGIiFwMzN7yg9ILh-14" value="" style="rounded=1;whiteSpace=wrap;html=1;fontSize=14;fillColor=#fff2cc;strokeColor=#d6b656;sketch=1;curveFitting=1;jiggle=2;fontFamily=Comic Sans MS;" parent="1" vertex="1">
          <mxGeometry x="-40" y="-20" width="980" height="570" as="geometry" />
        </mxCell>
        <mxCell id="-1kfDGIiFwMzN7yg9ILh-17" value="" style="rounded=1;whiteSpace=wrap;html=1;fontSize=14;fillColor=#d5e8d4;strokeColor=#82b366;opacity=50;sketch=1;curveFitting=1;jiggle=2;fontFamily=Comic Sans MS;" parent="1" vertex="1">
          <mxGeometry x="300" y="30" width="560" height="480" as="geometry" />
        </mxCell>
        <mxCell id="-1kfDGIiFwMzN7yg9ILh-2" value="&lt;h1&gt;Import&lt;/h1&gt;&lt;p style=&quot;font-size: 14px&quot;&gt;&lt;font style=&quot;font-size: 14px&quot;&gt;Reading and writing geospatial data&lt;/font&gt;&lt;/p&gt;&lt;p style=&quot;font-size: 14px&quot;&gt;&lt;font style=&quot;font-size: 14px&quot;&gt;Web APIs and searching for geospatial data in the cloud&lt;/font&gt;&lt;/p&gt;" style="text;html=1;strokeColor=#6c8ebf;fillColor=#dae8fc;spacing=5;spacingTop=-20;whiteSpace=wrap;overflow=hidden;rounded=0;sketch=1;curveFitting=1;jiggle=2;fontFamily=Comic Sans MS;" parent="1" vertex="1">
          <mxGeometry x="-20" y="198.75" width="220" height="140" as="geometry" />
        </mxCell>
        <mxCell id="-1kfDGIiFwMzN7yg9ILh-3" value="&lt;h1&gt;Transform&lt;/h1&gt;&lt;p style=&quot;font-size: 14px&quot;&gt;&lt;font style=&quot;font-size: 14px&quot;&gt;Data cleaning and exploration&lt;/font&gt;&lt;/p&gt;&lt;p style=&quot;font-size: 14px&quot;&gt;&lt;font style=&quot;font-size: 14px&quot;&gt;Data transformation&lt;/font&gt;&lt;/p&gt;" style="text;html=1;strokeColor=#6c8ebf;fillColor=#dae8fc;spacing=5;spacingTop=-20;whiteSpace=wrap;overflow=hidden;rounded=0;sketch=1;curveFitting=1;jiggle=2;fontFamily=Comic Sans MS;" parent="1" vertex="1">
          <mxGeometry x="320" y="200" width="220" height="140" as="geometry" />
        </mxCell>
        <mxCell id="-1kfDGIiFwMzN7yg9ILh-4" value="&lt;h1&gt;Visualisation&lt;/h1&gt;&lt;p style=&quot;font-size: 14px&quot;&gt;&lt;font style=&quot;font-size: 14px&quot;&gt;Interactive data visualisation&lt;/font&gt;&lt;/p&gt;&lt;p style=&quot;font-size: 14px&quot;&gt;&lt;font style=&quot;font-size: 14px&quot;&gt;Web mapping&lt;/font&gt;&lt;/p&gt;" style="text;html=1;strokeColor=#6c8ebf;fillColor=#dae8fc;spacing=5;spacingTop=-20;whiteSpace=wrap;overflow=hidden;rounded=0;sketch=1;curveFitting=1;jiggle=2;fontFamily=Comic Sans MS;" parent="1" vertex="1">
          <mxGeometry x="600" y="50" width="220" height="140" as="geometry" />
        </mxCell>
        <mxCell id="-1kfDGIiFwMzN7yg9ILh-5" value="&lt;h1&gt;Model&lt;/h1&gt;&lt;p style=&quot;font-size: 14px&quot;&gt;&lt;font style=&quot;font-size: 14px&quot;&gt;Machine learning&lt;/font&gt;&lt;/p&gt;&lt;p style=&quot;font-size: 14px&quot;&gt;&lt;font style=&quot;font-size: 14px&quot;&gt;Time-series&lt;/font&gt;&lt;/p&gt;" style="text;html=1;strokeColor=#6c8ebf;fillColor=#dae8fc;spacing=5;spacingTop=-20;whiteSpace=wrap;overflow=hidden;rounded=0;sketch=1;curveFitting=1;jiggle=2;fontFamily=Comic Sans MS;" parent="1" vertex="1">
          <mxGeometry x="600" y="350" width="220" height="140" as="geometry" />
        </mxCell>
        <mxCell id="-1kfDGIiFwMzN7yg9ILh-10" value="" style="html=1;shadow=0;dashed=0;align=center;verticalAlign=middle;shape=mxgraph.arrows2.bendDoubleArrow;dy=15;dx=38;arrowHead=55;rounded=1;fontSize=14;fillColor=#dae8fc;strokeColor=#6c8ebf;sketch=1;curveFitting=1;jiggle=2;fontFamily=Comic Sans MS;" parent="1" vertex="1">
          <mxGeometry x="400" y="90" width="190" height="100" as="geometry" />
        </mxCell>
        <mxCell id="-1kfDGIiFwMzN7yg9ILh-12" value="" style="html=1;shadow=0;dashed=0;align=center;verticalAlign=middle;shape=mxgraph.arrows2.bendDoubleArrow;dy=15;dx=38;arrowHead=55;rounded=1;fontSize=14;rotation=-180;flipH=1;fillColor=#dae8fc;strokeColor=#6c8ebf;sketch=1;curveFitting=1;jiggle=2;fontFamily=Comic Sans MS;" parent="1" vertex="1">
          <mxGeometry x="400" y="350" width="190" height="100" as="geometry" />
        </mxCell>
        <mxCell id="-1kfDGIiFwMzN7yg9ILh-13" value="" style="html=1;shadow=0;dashed=0;align=center;verticalAlign=middle;shape=mxgraph.arrows2.arrow;dy=0.6;dx=40;notch=0;fontSize=14;fillColor=#dae8fc;strokeColor=#6c8ebf;sketch=1;curveFitting=1;jiggle=2;fontFamily=Comic Sans MS;" parent="1" vertex="1">
          <mxGeometry x="210" y="233.75" width="100" height="70" as="geometry" />
        </mxCell>
        <mxCell id="-1kfDGIiFwMzN7yg9ILh-16" value="&lt;h1&gt;Programming&lt;/h1&gt;&lt;div style=&quot;font-size: 14px&quot;&gt;Programming is a cross-cutting skill for data handling and analysis.&lt;/div&gt;" style="text;html=1;strokeColor=#d6b656;fillColor=#fff2cc;spacing=5;spacingTop=-20;whiteSpace=wrap;overflow=hidden;rounded=0;sketch=1;curveFitting=1;jiggle=2;fontFamily=Comic Sans MS;" parent="1" vertex="1">
          <mxGeometry x="-20" y="360" width="220" height="110" as="geometry" />
        </mxCell>
        <mxCell id="-1kfDGIiFwMzN7yg9ILh-18" value="&lt;h1&gt;Explore&lt;/h1&gt;" style="text;html=1;strokeColor=none;fillColor=none;spacing=5;spacingTop=-20;whiteSpace=wrap;overflow=hidden;rounded=0;sketch=1;curveFitting=1;jiggle=2;fontFamily=Comic Sans MS;" parent="1" vertex="1">
          <mxGeometry x="360" y="40" width="100" height="40" as="geometry" />
        </mxCell>
        <mxCell id="-1kfDGIiFwMzN7yg9ILh-19" value="" style="html=1;shadow=0;dashed=0;align=center;verticalAlign=middle;shape=mxgraph.arrows2.triadArrow;dy=10;dx=20;arrowHead=40;fontSize=14;fillColor=#dae8fc;rotation=90;strokeColor=#6c8ebf;sketch=1;curveFitting=1;jiggle=2;fontFamily=Comic Sans MS;" parent="1" vertex="1">
          <mxGeometry x="722.5" y="172.5" width="140" height="195" as="geometry" />
        </mxCell>
        <mxCell id="-1kfDGIiFwMzN7yg9ILh-21" value="&lt;h1&gt;Communicate&lt;/h1&gt;" style="text;html=1;strokeColor=none;fillColor=none;spacing=5;spacingTop=-20;whiteSpace=wrap;overflow=hidden;rounded=0;rotation=90;sketch=1;curveFitting=1;jiggle=2;fontFamily=Comic Sans MS;" parent="1" vertex="1">
          <mxGeometry x="830" y="248.75" width="170" height="40" as="geometry" />
        </mxCell>
      </root>
    </mxGraphModel>
  </diagram>
</mxfile>
